<svg width="24" height="24" viewBox="0 0 24 24" fill="none" xmlns="http://www.w3.org/2000/svg">
<path d="M2 14.5C2 9.25329 6.25329 5 11.5 5C16.7467 5 21 9.25329 21 14.5C21 19.7467 16.7467 24 11.5 24C6.25329 24 2 19.7467 2 14.5Z" fill="#FF6A13"/>
<path fill-rule="evenodd" clip-rule="evenodd" d="M16.8768 1.2346C17.0795 1.95525 16.6687 2.70637 15.9592 2.91227C15.2817 3.10888 14.5768 3.8566 13.965 5.13112C13.383 6.34366 13.0372 7.72231 12.9044 8.5991C12.7922 9.33987 12.11 9.84799 11.3807 9.73403C10.6514 9.62006 10.1511 8.92716 10.2633 8.18639C10.4274 7.10297 10.8388 5.45085 11.5631 3.94171C12.2578 2.49456 13.4086 0.82972 15.2251 0.302564C15.9346 0.0966641 16.6741 0.513951 16.8768 1.2346Z" fill="#027B06"/>
<path d="M11.2066 8.98198C9.34979 8.63982 5.3928 8.8451 5.39282 2.58904C7.97176 2.42785 12.0292 2.51213 11.2066 8.98198Z" fill="#027B06"/>
</svg>
