<svg width="22" height="22" viewBox="0 0 22 22" fill="none" xmlns="http://www.w3.org/2000/svg">
<path d="M12.8346 2.08032V5.86665C12.8346 6.38003 12.8346 6.63672 12.9345 6.83281C13.0224 7.00529 13.1627 7.14552 13.3351 7.23341C13.5312 7.33332 13.7879 7.33332 14.3013 7.33332H18.0876M12.8346 15.5833H7.33464M14.668 11.9166H7.33464M18.3346 9.15579V15.7666C18.3346 17.3067 18.3346 18.0768 18.0349 18.6651C17.7713 19.1825 17.3506 19.6032 16.8331 19.8669C16.2449 20.1666 15.4748 20.1666 13.9346 20.1666H8.06797C6.52782 20.1666 5.75775 20.1666 5.16949 19.8669C4.65205 19.6032 4.23135 19.1825 3.9677 18.6651C3.66797 18.0768 3.66797 17.3067 3.66797 15.7666V6.23325C3.66797 4.69311 3.66797 3.92304 3.9677 3.33478C4.23135 2.81733 4.65205 2.39664 5.16949 2.13298C5.75775 1.83325 6.52782 1.83325 8.06797 1.83325H11.0121C11.6847 1.83325 12.021 1.83325 12.3375 1.90923C12.6181 1.9766 12.8864 2.08771 13.1324 2.23849C13.4099 2.40856 13.6477 2.64636 14.1234 3.12198L17.0459 6.04452C17.5215 6.52014 17.7593 6.75795 17.9294 7.03547C18.0802 7.28152 18.1913 7.54976 18.2587 7.83036C18.3346 8.14686 18.3346 8.48317 18.3346 9.15579Z" stroke="#FF6A13" stroke-width="1.83333" stroke-linecap="round" stroke-linejoin="round"/>
</svg>
